<svg width="47" height="40" viewBox="0 0 47 40" fill="none" xmlns="http://www.w3.org/2000/svg">
<path d="M26.6045 0C37.4654 0.000215233 46.4443 8.61997 46.4443 19.4697C46.4443 30.5186 37.6647 39.6599 26.6045 39.6602C13.5568 39.6602 0.000109138 32.5039 0 19.4697C0 6.60382 13.7253 0 26.6045 0ZM21.917 5.74023C19.3233 5.7403 17.2209 7.84288 17.2207 10.4365C17.2207 13.0304 19.3232 15.1337 21.917 15.1338C24.5109 15.1338 26.6133 13.0304 26.6133 10.4365C26.6131 7.84284 24.5107 5.74023 21.917 5.74023Z" fill="#292929"/>
<circle cx="10.6973" cy="12.2637" r="1.82646" fill="#EC7777"/>
<circle cx="7.56669" cy="19.5694" r="1.82646" fill="#EFD867"/>
<circle cx="10.6973" cy="26.875" r="1.82646" fill="#8AC98B"/>
<circle cx="18.0032" cy="31.0494" r="1.82646" fill="#D99AF2"/>
</svg>
