<svg width="20" height="20" viewBox="0 0 20 20" fill="none" xmlns="http://www.w3.org/2000/svg">
<path d="M9.16675 8.55817L5.83341 2.78317M9.16675 11.4415L5.83341 17.2165M10.0001 18.3332V16.6665M10.0001 16.6665C13.682 16.6665 16.6667 13.6817 16.6667 9.99984C16.6667 6.31794 13.682 3.33317 10.0001 3.33317M10.0001 16.6665C6.31818 16.6665 3.33341 13.6817 3.33341 9.99984M10.0001 1.6665V3.33317M10.0001 3.33317C6.31818 3.33317 3.33341 6.31794 3.33341 9.99984M11.6667 9.99984H18.3334M11.6667 9.99984C11.6667 10.9203 10.9206 11.6665 10.0001 11.6665C9.07961 11.6665 8.33341 10.9203 8.33341 9.99984C8.33341 9.07936 9.07961 8.33317 10.0001 8.33317C10.9206 8.33317 11.6667 9.07936 11.6667 9.99984ZM14.1667 17.2165L13.3334 15.7748M14.1667 2.78317L13.3334 4.22484M1.66675 9.99984H3.33341M17.2167 14.1665L15.7751 13.3332M17.2167 5.83317L15.7751 6.6665M2.78341 14.1665L4.22508 13.3332M2.78341 5.83317L4.22508 6.6665" stroke="#292929" stroke-linecap="square" stroke-linejoin="round"/>
</svg>
